<svg xmlns="http://www.w3.org/2000/svg" viewBox="0 0 546 546">
  <path
        d="M248 545A275 275 0 0 1 3 313 275 275 0 0 1 233 3a265 265 0 0 1 237 81 269 269 0 0 1 48 310 273 273 0 0 1-270 151m9-90v-54h-22l-61 5 14 33c14 29 34 53 54 64l14 7zm44 50q14-6 27-21 17-18 30-44l14-33c-1-1-43-5-62-5l-21-1v109l2-1zm-119-14a274 274 0 0 1-41-81l-57 12a220 220 0 0 0 79 66l23 10q1-2-4-7m200-3a243 243 0 0 0 78-64c-2-2-54-14-55-13l-6 14a278 278 0 0 1-40 73zm102-99a252 252 0 0 0 29-96v-4h-88l-1 18a441 441 0 0 1-11 73l67 16zm-409 3 57-14-2-15c-4-19-6-35-8-56l-1-18H33v4c0 13 6 41 13 59 6 20 17 42 20 42zm309-29q6-30 8-62l1-12H289v80h20l72 5zm-190 9 40-3h23v-80H154v5c0 15 4 47 8 70l3 11 5-1zm-72-128a491 491 0 0 1 10-79l-12-3-53-13a243 243 0 0 0-34 103v5h88zm135-27v-41h-10l-23-2-54-4-5-1-3 11c-4 22-8 56-8 71v6h103zm135 27a465 465 0 0 0-10-73h-8l-67 5h-18v81h104zm121 5q-4-42-24-84c-9-16-6-15-22-11l-53 12 2 15c5 25 9 55 9 70v6h88zM257 89V34l-4 2c-19 7-41 26-56 52-7 12-24 49-23 50s50 5 79 6h4zm89 52 25-2c2-2-12-35-22-51q-24-40-56-52l-4-2v110l16-1zm75-9 39-9q1-2-6-10a240 240 0 0 0-92-64l5 9q20 27 34 65l5 11zm-279-1 5-11a268 268 0 0 1 37-71l-20 9a239 239 0 0 0-77 63z"
    />
</svg>
